<svg width="20" height="20" viewBox="0 0 20 20" fill="none" xmlns="http://www.w3.org/2000/svg">
<path fill-rule="evenodd" clip-rule="evenodd" d="M10 19.6C12.5461 19.6 14.9879 18.5886 16.7882 16.7882C18.5886 14.9879 19.6 12.5461 19.6 9.99999C19.6 7.45392 18.5886 5.01212 16.7882 3.21177C14.9879 1.41142 12.5461 0.399994 10 0.399994C7.45395 0.399994 5.01215 1.41142 3.2118 3.21177C1.41145 5.01212 0.400024 7.45392 0.400024 9.99999C0.400024 12.5461 1.41145 14.9879 3.2118 16.7882C5.01215 18.5886 7.45395 19.6 10 19.6ZM6.40002 8.79999H4.00002V11.2H6.40002V8.79999ZM16 8.79999H13.6V11.2H16V8.79999ZM8.80002 8.79999H11.2V11.2H8.80002V8.79999Z" fill="#808080"/>
</svg>
